<svg width="32" height="32" viewBox="0 0 32 32" fill="none" xmlns="http://www.w3.org/2000/svg">
<path d="M17.8461 0.415387C17.3958 0.415387 17.0307 0.780425 17.0307 1.23077V14.1538C17.0307 14.6042 17.3958 14.9692 17.8461 14.9692H30.7692C31.2194 14.9692 31.5846 14.6042 31.5846 14.1538C31.5846 6.56106 25.4399 0.415387 17.8461 0.415387ZM18.6615 13.3385V2.07331C24.6894 2.47594 29.524 7.31061 29.9266 13.3385H18.6615Z" fill="#737791" stroke="#737791" stroke-width="0.4"/>
<path d="M27.0769 17.0308H14.9692V4.92309C14.9692 4.47276 14.6042 4.10771 14.1538 4.10771C6.56103 4.10771 0.415356 10.2524 0.415356 17.8462C0.415356 25.4389 6.56003 31.5846 14.1538 31.5846C21.7466 31.5846 27.8923 25.44 27.8923 17.8462C27.8923 17.3959 27.5272 17.0308 27.0769 17.0308ZM14.1538 29.9539C7.47781 29.9539 2.04613 24.5222 2.04613 17.8462C2.04613 11.4441 7.0411 6.18622 13.3384 5.76563V17.8462C13.3384 18.2964 13.7035 18.6616 14.1538 18.6616H26.2344C25.8137 24.9589 20.5559 29.9539 14.1538 29.9539Z" fill="#737791" stroke="#737791" stroke-width="0.4"/>
</svg>
