<svg width="32" height="32" viewBox="0 0 32 32" fill="none" xmlns="http://www.w3.org/2000/svg">
<path fill-rule="evenodd" clip-rule="evenodd" d="M21.7746 22.2011L26.337 16.8778C26.5549 16.6292 26.6663 16.3155 26.6665 16.0001C26.6666 15.7842 26.6146 15.5677 26.5089 15.3707C26.462 15.2829 26.4046 15.1995 26.337 15.1223L21.7746 9.79897C21.2954 9.23985 20.4537 9.17505 19.8946 9.65425C19.3354 10.1334 19.2706 10.9752 19.7498 11.5343L22.4344 14.6666L12.1082 14.6666C11.3718 14.6666 10.7749 15.2636 10.7749 16C10.7749 16.7363 11.3718 17.3333 12.1082 17.3333L22.4345 17.3333L19.7498 20.4658C19.2706 21.0249 19.3354 21.8667 19.8946 22.3459C20.4537 22.8251 21.2954 22.7603 21.7746 22.2011ZM13.3332 7.99995C14.0695 7.99995 14.6665 8.5969 14.6665 9.33328L14.6665 11.3333C14.6665 12.0697 15.2635 12.6666 15.9998 12.6666C16.7362 12.6666 17.3332 12.0697 17.3332 11.3333L17.3332 9.33328C17.3332 7.12414 15.5423 5.33328 13.3332 5.33328L9.33317 5.33328C7.12403 5.33328 5.33317 7.12414 5.33317 9.33328L5.33317 22.6666C5.33317 24.8758 7.12403 26.6666 9.33317 26.6666L13.3332 26.6666C15.5423 26.6666 17.3332 24.8758 17.3332 22.6666L17.3332 20.6666C17.3332 19.9302 16.7362 19.3333 15.9998 19.3333C15.2635 19.3333 14.6665 19.9302 14.6665 20.6666L14.6665 22.6666C14.6665 23.403 14.0695 23.9999 13.3332 23.9999L9.33317 23.9999C8.59679 23.9999 7.99984 23.403 7.99984 22.6666L7.99984 9.33328C7.99984 8.5969 8.59679 7.99995 9.33317 7.99995L13.3332 7.99995Z" fill="white"/>
</svg>
