<svg width="28" height="28" viewBox="0 0 28 28" fill="none" xmlns="http://www.w3.org/2000/svg">
<path fill-rule="evenodd" clip-rule="evenodd" d="M19.7747 20.2011L24.3371 14.8777C24.555 14.6292 24.6665 14.3154 24.6666 14C24.6667 13.7842 24.6147 13.5676 24.5091 13.3706C24.4621 13.2828 24.4047 13.1994 24.3371 13.1223L19.7747 7.79894C19.2955 7.23982 18.4538 7.17502 17.8947 7.65422C17.3356 8.13342 17.2708 8.97515 17.75 9.53427L20.4345 12.6666L10.1083 12.6666C9.37195 12.6666 8.77499 13.2636 8.77499 13.9999C8.77499 14.7363 9.37195 15.3333 10.1083 15.3333L20.4347 15.3333L17.75 18.4658C17.2708 19.0249 17.3356 19.8666 17.8947 20.3458C18.4538 20.825 19.2955 20.7602 19.7747 20.2011ZM11.3333 5.99992C12.0697 5.99992 12.6666 6.59687 12.6666 7.33325L12.6666 9.33325C12.6666 10.0696 13.2636 10.6666 14 10.6666C14.7363 10.6666 15.3333 10.0696 15.3333 9.33325L15.3333 7.33325C15.3333 5.12411 13.5424 3.33325 11.3333 3.33325L7.33329 3.33325C5.12415 3.33325 3.33329 5.12411 3.33329 7.33325L3.33329 20.6666C3.33329 22.8757 5.12415 24.6666 7.33329 24.6666L11.3333 24.6666C13.5424 24.6666 15.3333 22.8757 15.3333 20.6666L15.3333 18.6666C15.3333 17.9302 14.7363 17.3333 14 17.3333C13.2636 17.3333 12.6666 17.9302 12.6666 18.6666L12.6666 20.6666C12.6666 21.403 12.0697 21.9999 11.3333 21.9999L7.33329 21.9999C6.59691 21.9999 5.99996 21.403 5.99996 20.6666L5.99996 7.33325C5.99996 6.59687 6.59691 5.99992 7.33329 5.99992L11.3333 5.99992Z" fill="#737791"/>
</svg>
