<svg width="28" height="26" viewBox="0 0 28 26" fill="none" xmlns="http://www.w3.org/2000/svg">
<path d="M6.60675 21.3333L0.666748 26V1.33333C0.666748 0.979711 0.807224 0.640573 1.05727 0.390524C1.30732 0.140476 1.64646 0 2.00008 0H26.0001C26.3537 0 26.6928 0.140476 26.9429 0.390524C27.1929 0.640573 27.3334 0.979711 27.3334 1.33333V20C27.3334 20.3536 27.1929 20.6928 26.9429 20.9428C26.6928 21.1929 26.3537 21.3333 26.0001 21.3333H6.60675ZM7.33341 9.33333V12H10.0001V9.33333H7.33341ZM12.6667 9.33333V12H15.3334V9.33333H12.6667ZM18.0001 9.33333V12H20.6667V9.33333H18.0001Z" fill="white"/>
</svg>
