<svg width="26" height="26" viewBox="0 0 26 26" fill="none" xmlns="http://www.w3.org/2000/svg">
<path d="M1 1H3.66667L4.2 3.66667M6.33333 14.3333H19.6667L25 3.66667H4.2M6.33333 14.3333L4.2 3.66667M6.33333 14.3333L3.27614 17.3905C2.43619 18.2305 3.03108 19.6667 4.21895 19.6667H19.6667M19.6667 19.6667C18.1939 19.6667 17 20.8606 17 22.3333C17 23.8061 18.1939 25 19.6667 25C21.1394 25 22.3333 23.8061 22.3333 22.3333C22.3333 20.8606 21.1394 19.6667 19.6667 19.6667ZM9 22.3333C9 23.8061 7.80609 25 6.33333 25C4.86057 25 3.66667 23.8061 3.66667 22.3333C3.66667 20.8606 4.86057 19.6667 6.33333 19.6667C7.80609 19.6667 9 20.8606 9 22.3333Z" stroke="#737791" stroke-width="2" stroke-linecap="round" stroke-linejoin="round"/>
</svg>
