<svg width="27" height="28" viewBox="0 0 27 28" fill="none" xmlns="http://www.w3.org/2000/svg">
<path d="M21.6667 22C20.1867 22 19 23.1867 19 24.6667C19 25.3739 19.281 26.0522 19.7811 26.5523C20.2812 27.0524 20.9595 27.3333 21.6667 27.3333C22.374 27.3333 23.0522 27.0524 23.5523 26.5523C24.0524 26.0522 24.3334 25.3739 24.3334 24.6667C24.3334 23.9594 24.0524 23.2811 23.5523 22.781C23.0522 22.2809 22.374 22 21.6667 22ZM0.333374 0.666656V3.33332H3.00004L7.80004 13.4533L5.98671 16.72C5.78671 17.0933 5.66671 17.5333 5.66671 18C5.66671 18.7072 5.94766 19.3855 6.44776 19.8856C6.94785 20.3857 7.62613 20.6667 8.33337 20.6667H24.3334V18H8.89337C8.80497 18 8.72018 17.9649 8.65767 17.9024C8.59516 17.8398 8.56004 17.7551 8.56004 17.6667C8.56004 17.6 8.57337 17.5467 8.60004 17.5067L9.80004 15.3333H19.7334C20.7334 15.3333 21.6134 14.7733 22.0667 13.96L26.84 5.33332C26.9334 5.11999 27 4.89332 27 4.66666C27 4.31303 26.8596 3.9739 26.6095 3.72385C26.3595 3.4738 26.0203 3.33332 25.6667 3.33332H5.94671L4.69337 0.666656M8.33337 22C6.85337 22 5.66671 23.1867 5.66671 24.6667C5.66671 25.3739 5.94766 26.0522 6.44776 26.5523C6.94785 27.0524 7.62613 27.3333 8.33337 27.3333C9.04062 27.3333 9.71889 27.0524 10.219 26.5523C10.7191 26.0522 11 25.3739 11 24.6667C11 23.9594 10.7191 23.2811 10.219 22.781C9.71889 22.2809 9.04062 22 8.33337 22Z" fill="white"/>
</svg>
