<svg width="26" height="28" viewBox="0 0 26 28" fill="none" xmlns="http://www.w3.org/2000/svg">
<path fill-rule="evenodd" clip-rule="evenodd" d="M6.99996 6V7H4.35062C3.07062 7 1.99862 7.96533 1.86396 9.23867L0.179957 25.2387C0.14333 25.5871 0.18036 25.9394 0.288644 26.2726C0.396928 26.6058 0.574048 26.9126 0.808515 27.173C1.04298 27.4333 1.32956 27.6415 1.64966 27.784C1.96977 27.9265 2.31624 28.0001 2.66662 28H23.3333C23.6837 28.0001 24.0301 27.9265 24.3502 27.784C24.6704 27.6415 24.9569 27.4333 25.1914 27.173C25.4259 26.9126 25.603 26.6058 25.7113 26.2726C25.8196 25.9394 25.8566 25.5871 25.82 25.2387L24.136 9.23867C24.0714 8.62419 23.7815 8.05541 23.3223 7.64201C22.8632 7.22862 22.2671 6.99991 21.6493 7H19V6C19 4.4087 18.3678 2.88258 17.2426 1.75736C16.1174 0.632141 14.5913 0 13 0C11.4087 0 9.88253 0.632141 8.75732 1.75736C7.6321 2.88258 6.99996 4.4087 6.99996 6ZM13 2C11.9391 2 10.9217 2.42143 10.1715 3.17157C9.42138 3.92172 8.99996 4.93913 8.99996 6V7H17V6C17 4.93913 16.5785 3.92172 15.8284 3.17157C15.0782 2.42143 14.0608 2 13 2ZM8.99996 13C8.99996 14.0609 9.42138 15.0783 10.1715 15.8284C10.9217 16.5786 11.9391 17 13 17C14.0608 17 15.0782 16.5786 15.8284 15.8284C16.5785 15.0783 17 14.0609 17 13V12C17 11.7348 17.1053 11.4804 17.2929 11.2929C17.4804 11.1054 17.7347 11 18 11C18.2652 11 18.5195 11.1054 18.7071 11.2929C18.8946 11.4804 19 11.7348 19 12V13C19 14.5913 18.3678 16.1174 17.2426 17.2426C16.1174 18.3679 14.5913 19 13 19C11.4087 19 9.88253 18.3679 8.75732 17.2426C7.6321 16.1174 6.99996 14.5913 6.99996 13V12C6.99996 11.7348 7.10531 11.4804 7.29285 11.2929C7.48039 11.1054 7.73474 11 7.99996 11C8.26517 11 8.51953 11.1054 8.70706 11.2929C8.8946 11.4804 8.99996 11.7348 8.99996 12V13Z" fill="white"/>
</svg>
