<svg width="32" height="32" viewBox="0 0 32 32" fill="none" xmlns="http://www.w3.org/2000/svg">
<path d="M25.3333 8H22.6667C22.6667 4.26666 19.7333 1.33333 16 1.33333C12.2667 1.33333 9.33333 4.26666 9.33333 8H6.66667C5.2 8 4 9.2 4 10.6667V26.6667C4 28.1333 5.2 29.3333 6.66667 29.3333H25.3333C26.8 29.3333 28 28.1333 28 26.6667V10.6667C28 9.2 26.8 8 25.3333 8ZM16 3.99999C18.2667 3.99999 20 5.73333 20 8H12C12 5.73333 13.7333 3.99999 16 3.99999ZM25.3333 26.6667H6.66667V10.6667H25.3333V26.6667ZM16 16C13.7333 16 12 14.2667 12 12H9.33333C9.33333 15.7333 12.2667 18.6667 16 18.6667C19.7333 18.6667 22.6667 15.7333 22.6667 12H20C20 14.2667 18.2667 16 16 16Z" fill="#737791"/>
</svg>
