<svg width="26" height="28" viewBox="0 0 26 28" fill="none" xmlns="http://www.w3.org/2000/svg">
<path d="M13 18.6667C11.7624 18.6667 10.5754 18.175 9.7002 17.2998C8.82503 16.4247 8.33336 15.2377 8.33336 14C8.33336 12.7623 8.82503 11.5753 9.7002 10.7002C10.5754 9.82499 11.7624 9.33333 13 9.33333C14.2377 9.33333 15.4247 9.82499 16.2999 10.7002C17.175 11.5753 17.6667 12.7623 17.6667 14C17.6667 15.2377 17.175 16.4247 16.2999 17.2998C15.4247 18.175 14.2377 18.6667 13 18.6667ZM22.9067 15.2933C22.96 14.8667 23 14.44 23 14C23 13.56 22.96 13.12 22.9067 12.6667L25.72 10.4933C25.9734 10.2933 26.04 9.93333 25.88 9.63999L23.2134 5.02666C23.0534 4.73333 22.6934 4.61333 22.4 4.73333L19.08 6.06666C18.3867 5.54666 17.6667 5.09333 16.8267 4.75999L16.3334 1.22666C16.3063 1.06962 16.2245 0.927228 16.1025 0.824728C15.9804 0.722227 15.8261 0.66623 15.6667 0.666659H10.3334C10 0.666659 9.72003 0.906659 9.6667 1.22666L9.17336 4.75999C8.33336 5.09333 7.61336 5.54666 6.92003 6.06666L3.60003 4.73333C3.3067 4.61333 2.9467 4.73333 2.7867 5.02666L0.12003 9.63999C-0.0533034 9.93333 0.0266968 10.2933 0.28003 10.4933L3.09336 12.6667C3.04003 13.12 3.00003 13.56 3.00003 14C3.00003 14.44 3.04003 14.8667 3.09336 15.2933L0.28003 17.5067C0.0266968 17.7067 -0.0533034 18.0667 0.12003 18.36L2.7867 22.9733C2.9467 23.2667 3.3067 23.3733 3.60003 23.2667L6.92003 21.92C7.61336 22.4533 8.33336 22.9067 9.17336 23.24L9.6667 26.7733C9.72003 27.0933 10 27.3333 10.3334 27.3333H15.6667C16 27.3333 16.28 27.0933 16.3334 26.7733L16.8267 23.24C17.6667 22.8933 18.3867 22.4533 19.08 21.92L22.4 23.2667C22.6934 23.3733 23.0534 23.2667 23.2134 22.9733L25.88 18.36C26.04 18.0667 25.9734 17.7067 25.72 17.5067L22.9067 15.2933Z" fill="white"/>
</svg>
