<svg width="26" height="28" viewBox="0 0 26 28" fill="none" xmlns="http://www.w3.org/2000/svg">
<path d="M13 8.66667C14.4145 8.66667 15.7711 9.22857 16.7713 10.2288C17.7714 11.229 18.3334 12.5855 18.3334 14C18.3334 15.4145 17.7714 16.771 16.7713 17.7712C15.7711 18.7714 14.4145 19.3333 13 19.3333C11.5855 19.3333 10.229 18.7714 9.22878 17.7712C8.22859 16.771 7.66669 15.4145 7.66669 14C7.66669 12.5855 8.22859 11.229 9.22878 10.2288C10.229 9.22857 11.5855 8.66667 13 8.66667ZM13 11.3333C12.2928 11.3333 11.6145 11.6143 11.1144 12.1144C10.6143 12.6145 10.3334 13.2928 10.3334 14C10.3334 14.7072 10.6143 15.3855 11.1144 15.8856C11.6145 16.3857 12.2928 16.6667 13 16.6667C13.7073 16.6667 14.3855 16.3857 14.8856 15.8856C15.3857 15.3855 15.6667 14.7072 15.6667 14C15.6667 13.2928 15.3857 12.6145 14.8856 12.1144C14.3855 11.6143 13.7073 11.3333 13 11.3333ZM10.3334 27.3333C10 27.3333 9.72002 27.0933 9.66669 26.7733L9.17335 23.24C8.33335 22.9067 7.61335 22.4533 6.92002 21.92L3.60002 23.2667C3.30669 23.3733 2.94669 23.2667 2.78669 22.9733L0.120019 18.36C0.0384136 18.2226 0.00964452 18.0602 0.0390923 17.9032C0.06854 17.7461 0.154188 17.6052 0.28002 17.5067L3.09335 15.2933L3.00002 14L3.09335 12.6667L0.28002 10.4933C0.154188 10.3948 0.06854 10.2539 0.0390923 10.0968C0.00964452 9.93979 0.0384136 9.77738 0.120019 9.64L2.78669 5.02667C2.94669 4.73333 3.30669 4.61333 3.60002 4.73333L6.92002 6.06667C7.61335 5.54667 8.33335 5.09333 9.17335 4.76L9.66669 1.22667C9.72002 0.906667 10 0.666667 10.3334 0.666667H15.6667C16 0.666667 16.28 0.906667 16.3334 1.22667L16.8267 4.76C17.6667 5.09333 18.3867 5.54667 19.08 6.06667L22.4 4.73333C22.6934 4.61333 23.0534 4.73333 23.2134 5.02667L25.88 9.64C26.0534 9.93333 25.9734 10.2933 25.72 10.4933L22.9067 12.6667L23 14L22.9067 15.3333L25.72 17.5067C25.9734 17.7067 26.0534 18.0667 25.88 18.36L23.2134 22.9733C23.0534 23.2667 22.6934 23.3867 22.4 23.2667L19.08 21.9333C18.3867 22.4533 17.6667 22.9067 16.8267 23.24L16.3334 26.7733C16.28 27.0933 16 27.3333 15.6667 27.3333H10.3334ZM12 3.33333L11.5067 6.81333C9.90668 7.14667 8.49335 8 7.46669 9.18667L4.25335 7.8L3.25335 9.53333L6.06669 11.6C5.53335 13.1556 5.53335 14.8444 6.06669 16.4L3.24002 18.48L4.24002 20.2133L7.48002 18.8267C8.50669 20 9.90668 20.8533 11.4934 21.1733L11.9867 24.6667H14.0134L14.5067 21.1867C16.0934 20.8533 17.4934 20 18.52 18.8267L21.76 20.2133L22.76 18.48L19.9334 16.4133C20.4667 14.8533 20.4667 13.16 19.9334 11.6L22.7467 9.53333L21.7467 7.8L18.5333 9.18667C17.4856 7.97376 16.0645 7.14357 14.4934 6.82667L14 3.33333H12Z" fill="#737791"/>
</svg>
