<svg width="24" height="24" viewBox="0 0 24 24" fill="none" xmlns="http://www.w3.org/2000/svg">
<g clip-path="url(#clip0_8121_115)">
<path d="M12 0.75C9.88129 0.751693 7.80612 1.35165 6.01337 2.4808H17.9702C16.1822 1.35461 14.1131 0.754774 12 0.75Z" fill="#B22234"/>
<path d="M6.01337 2.48083C5.24109 2.96973 4.53126 3.55092 3.8996 4.21155H20.1137C19.4728 3.54901 18.7529 2.96775 17.9702 2.48083H6.01337Z" fill="white"/>
<path d="M3.8996 4.21155C3.38899 4.7424 2.93174 5.32212 2.53445 5.94235H21.4785C21.0813 5.32214 20.6242 4.74242 20.1137 4.21155H3.8996Z" fill="#B22234"/>
<path d="M2.53445 5.94232C2.17937 6.4915 1.87285 7.0706 1.61838 7.67303H22.3734C22.1257 7.07133 21.8263 6.49226 21.4785 5.94232H2.53445Z" fill="white"/>
<path d="M1.61838 7.67303C1.38803 8.23415 1.20344 8.81297 1.06641 9.40384H22.9328C22.7933 8.81275 22.6063 8.23392 22.3734 7.67303H1.61838Z" fill="#B22234"/>
<path d="M1.06641 9.40381C0.930513 9.97277 0.839202 10.5515 0.793304 11.1346H23.2134C23.165 10.5513 23.0712 9.97256 22.9328 9.40381H1.06641Z" fill="white"/>
<path d="M0.793304 11.1348C0.767763 11.4226 0.753317 11.7112 0.75 12.0001C0.751095 12.2889 0.763311 12.5776 0.786621 12.8655H23.2067C23.2322 12.5777 23.2467 12.289 23.25 12.0001C23.2489 11.7113 23.2367 11.4226 23.2134 11.1348H0.793304Z" fill="#B22234"/>
<path d="M0.786621 12.8652C0.834987 13.4486 0.928808 14.0273 1.06723 14.596H22.9336C23.0695 14.0271 23.1608 13.4484 23.2067 12.8652H0.786621Z" fill="white"/>
<path d="M1.06723 14.5962C1.20667 15.1873 1.39374 15.7661 1.62662 16.327H22.3816C22.612 15.7659 22.7966 15.1871 22.9336 14.5962H1.06723Z" fill="#B22234"/>
<path d="M1.62662 16.327C1.87431 16.9287 2.17375 17.5077 2.52155 18.0577H21.4655C21.8206 17.5085 22.1271 16.9294 22.3816 16.327H1.62662Z" fill="white"/>
<path d="M2.52155 18.0577C2.91872 18.6779 3.37584 19.2576 3.88632 19.7885H20.1004C20.611 19.2576 21.0683 18.6779 21.4655 18.0577H2.52155Z" fill="#B22234"/>
<path d="M3.88632 19.7885C4.5272 20.451 5.24707 21.0323 6.02975 21.5192H17.9866C18.7589 21.0303 19.4687 20.4491 20.1004 19.7885H3.88632Z" fill="white"/>
<path d="M6.02975 21.5192C7.81779 22.6454 9.88686 23.2452 12 23.25C14.1187 23.2483 16.1939 22.6483 17.9866 21.5192H6.02975Z" fill="#B22234"/>
<path d="M12 0.75C9.01631 0.75 6.15483 1.93526 4.04505 4.04505C1.93526 6.15483 0.75 9.01631 0.75 12C0.751472 12.2973 0.764727 12.5944 0.789734 12.8906H12.8906V0.794586C12.5945 0.767959 12.2973 0.753086 12 0.75Z" fill="#3C3B6E"/>
<path d="M7.97371 1.50847C7.82382 1.56319 7.6751 1.62109 7.52767 1.68214L7.692 1.80702L7.58086 2.16618L7.87529 1.94636L8.17833 2.17671L8.06453 1.805L8.36757 1.57878H7.99523L7.97371 1.50847ZM9.882 1.20117L9.76512 1.57875H9.39406L9.69442 1.80704L9.58325 2.16616L9.87766 1.94635L10.1807 2.17669L10.0669 1.80505L10.37 1.57875H9.99764L9.882 1.20117ZM11.8844 1.20117L11.7675 1.57875H11.3964L11.6968 1.80704L11.5856 2.16616L11.88 1.94635L12.1831 2.17669L12.0693 1.80505L12.3723 1.57875H12L11.8844 1.20117ZM5.07918 3.14726C5.02628 3.18671 4.97373 3.22663 4.92153 3.26701L5.17476 3.45955L5.07918 3.14726ZM6.87843 2.484L6.76154 2.86158H6.39049L6.69084 3.08987L6.57967 3.44899L6.87408 3.22918L7.17715 3.45952L7.06334 3.08788L7.36637 2.86158H6.99406L6.87843 2.484ZM8.88081 2.484L8.76393 2.86158H8.39287L8.69323 3.08987L8.58206 3.44899L8.87647 3.22918L9.17953 3.45952L9.06573 3.08788L9.36876 2.86158H8.99644L8.88081 2.484ZM10.8832 2.484L10.7663 2.86158H10.3953L10.6956 3.08987L10.5844 3.44899L10.8789 3.22918L11.1819 3.45952L11.0681 3.08788L11.3711 2.86158H10.9988L10.8832 2.484ZM3.98119 4.11415C3.87022 4.23161 3.7618 4.35145 3.65599 4.47358L3.57607 4.73176L3.8705 4.51194L4.17354 4.74229L4.05974 4.37068L4.36278 4.14436H3.99044L3.98119 4.11415ZM5.87724 3.76678L5.76034 4.14436H5.38929L5.68964 4.37265L5.57847 4.73176L5.87289 4.51196L6.17596 4.7423L6.06215 4.37066L6.36518 4.14436H5.99286L5.87724 3.76678ZM7.87962 3.76678L7.76273 4.14436H7.39168L7.69203 4.37265L7.58086 4.73176L7.87527 4.51196L8.17834 4.7423L8.06453 4.37066L8.36756 4.14436H7.99525L7.87962 3.76678ZM9.882 3.76678L9.76512 4.14436H9.39406L9.69442 4.37265L9.58325 4.73176L9.87766 4.51196L10.1807 4.7423L10.0669 4.37066L10.37 4.14436H9.99764L9.882 3.76678ZM11.8844 3.76678L11.7675 4.14436H11.3964L11.6968 4.37265L11.5856 4.73176L11.88 4.51196L12.1831 4.7423L12.0693 4.37066L12.3723 4.14436H12L11.8844 3.76678ZM2.95864 5.32704C2.85498 5.46518 2.75452 5.60569 2.65734 5.74846L2.57494 6.0146L2.86928 5.79478L3.17241 6.02513L3.05861 5.65352L3.36156 5.4272H2.98931L2.95864 5.32704ZM4.87604 5.04961L4.75915 5.42718H4.3881L4.68845 5.65548L4.57728 6.01459L4.8717 5.79479L5.17477 6.02513L5.06096 5.65348L5.36399 5.42718H4.99167L4.87604 5.04961ZM6.87843 5.04961L6.76154 5.42718H6.39049L6.69084 5.65548L6.57967 6.01459L6.87408 5.79479L7.17715 6.02513L7.06334 5.65348L7.36637 5.42718H6.99406L6.87843 5.04961ZM8.88081 5.04961L8.76393 5.42718H8.39287L8.69323 5.65548L8.58206 6.01459L8.87647 5.79479L9.17953 6.02513L9.06573 5.65348L9.36876 5.42718H8.99644L8.88081 5.04961ZM10.8832 5.04961L10.7663 5.42718H10.3953L10.6956 5.65548L10.5844 6.01459L10.8789 5.79479L11.1819 6.02513L11.0681 5.65348L11.3711 5.42718H10.9988L10.8832 5.04961ZM2.08119 6.71003C2.01396 6.83605 1.94913 6.96333 1.88674 7.09181L2.17119 7.30797L2.05739 6.93635L2.36043 6.71003H2.08119ZM3.87485 6.33244L3.75796 6.71001H3.38691L3.68726 6.93831L3.57609 7.29742L3.87051 7.07762L4.17357 7.30796L4.05977 6.93631L4.3628 6.71001H3.99048L3.87485 6.33244ZM5.87724 6.33244L5.76034 6.71001H5.38929L5.68964 6.93831L5.57847 7.29742L5.87289 7.07762L6.17596 7.30796L6.06215 6.93631L6.36518 6.71001H5.99286L5.87724 6.33244ZM7.87962 6.33244L7.76273 6.71001H7.39168L7.69203 6.93831L7.58086 7.29742L7.87527 7.07762L8.17834 7.30796L8.06453 6.93631L8.36756 6.71001H7.99525L7.87962 6.33244ZM9.882 6.33244L9.76512 6.71001H9.39406L9.69442 6.93831L9.58325 7.29742L9.87766 7.07762L10.1807 7.30796L10.0669 6.93631L10.37 6.71001H9.99764L9.882 6.33244ZM11.8844 6.33244L11.7675 6.71001H11.3964L11.6968 6.93831L11.5856 7.29742L11.88 7.07762L12.1831 7.30796L12.0693 6.93631L12.3723 6.71001H12L11.8844 6.33244ZM2.87366 7.61522L2.75677 7.99279H2.38571L2.68607 8.22109L2.5749 8.5802L2.86931 8.3604L3.17238 8.59074L3.05858 8.21909L3.3616 7.99279H2.98928L2.87366 7.61522ZM4.87604 7.61522L4.75915 7.99279H4.3881L4.68845 8.22109L4.57728 8.5802L4.8717 8.3604L5.17477 8.59074L5.06096 8.21909L5.36399 7.99279H4.99167L4.87604 7.61522ZM6.87843 7.61522L6.76154 7.99279H6.39049L6.69084 8.22109L6.57967 8.5802L6.87408 8.3604L7.17715 8.59074L7.06334 8.21909L7.36637 7.99279H6.99406L6.87843 7.61522ZM8.88081 7.61522L8.76393 7.99279H8.39287L8.69323 8.22109L8.58206 8.5802L8.87647 8.3604L9.17953 8.59074L9.06573 8.21909L9.36876 7.99279H8.99644L8.88081 7.61522ZM10.8832 7.61522L10.7663 7.99279H10.3953L10.6956 8.22109L10.5844 8.5802L10.8789 8.3604L11.1819 8.59074L11.0681 8.21909L11.3711 7.99279H10.9988L10.8832 7.61522ZM1.87247 8.89804L1.75558 9.27562H1.38452L1.68488 9.50392L1.57371 9.86303L1.86812 9.64322L2.17119 9.87357L2.05738 9.50192L2.36041 9.27562H1.9881L1.87247 8.89804ZM3.87485 8.89804L3.75796 9.27562H3.38691L3.68726 9.50392L3.57609 9.86303L3.87051 9.64322L4.17357 9.87357L4.05977 9.50192L4.3628 9.27562H3.99048L3.87485 8.89804ZM5.87724 8.89804L5.76034 9.27562H5.38929L5.68964 9.50392L5.57847 9.86303L5.87289 9.64322L6.17596 9.87357L6.06215 9.50192L6.36518 9.27562H5.99286L5.87724 8.89804ZM7.87962 8.89804L7.76273 9.27562H7.39168L7.69203 9.50392L7.58086 9.86303L7.87527 9.64322L8.17834 9.87357L8.06453 9.50192L8.36756 9.27562H7.99525L7.87962 8.89804ZM9.882 8.89804L9.76512 9.27562H9.39406L9.69442 9.50392L9.58325 9.86303L9.87766 9.64322L10.1807 9.87357L10.0669 9.50192L10.37 9.27562H9.99764L9.882 8.89804ZM11.8844 8.89804L11.7675 9.27562H11.3964L11.6968 9.50392L11.5856 9.86303L11.88 9.64322L12.1831 9.87357L12.0693 9.50192L12.3723 9.27562H12L11.8844 8.89804ZM2.87366 10.1809L2.75677 10.5584H2.38571L2.68607 10.7867L2.5749 11.1459L2.86931 10.9261L3.17238 11.1564L3.05858 10.7847L3.3616 10.5584H2.98928L2.87366 10.1809ZM4.87604 10.1809L4.75915 10.5584H4.3881L4.68845 10.7867L4.57728 11.1459L4.8717 10.9261L5.17477 11.1564L5.06096 10.7847L5.36399 10.5584H4.99167L4.87604 10.1809ZM6.87843 10.1809L6.76154 10.5584H6.39049L6.69084 10.7867L6.57967 11.1459L6.87408 10.9261L7.17715 11.1564L7.06334 10.7847L7.36637 10.5584H6.99406L6.87843 10.1809ZM8.88081 10.1809L8.76393 10.5584H8.39287L8.69323 10.7867L8.58206 11.1459L8.87647 10.9261L9.17953 11.1564L9.06573 10.7847L9.36876 10.5584H8.99644L8.88081 10.1809ZM10.8832 10.1809L10.7663 10.5584H10.3953L10.6956 10.7867L10.5844 11.1459L10.8789 10.9261L11.1819 11.1564L11.0681 10.7847L11.3711 10.5584H10.9988L10.8832 10.1809ZM1.87247 11.4637L1.75558 11.8412H1.38452L1.68488 12.0695L1.57371 12.4286L1.86812 12.2088L2.17119 12.4392L2.05738 12.0675L2.36041 11.8412H1.9881L1.87247 11.4637ZM3.87485 11.4637L3.75796 11.8412H3.38691L3.68726 12.0695L3.57609 12.4286L3.87051 12.2088L4.17357 12.4392L4.05977 12.0675L4.3628 11.8412H3.99048L3.87485 11.4637ZM5.87724 11.4637L5.76034 11.8412H5.38929L5.68964 12.0695L5.57847 12.4286L5.87289 12.2088L6.17596 12.4392L6.06215 12.0675L6.36518 11.8412H5.99286L5.87724 11.4637ZM7.87962 11.4637L7.76273 11.8412H7.39168L7.69203 12.0695L7.58086 12.4286L7.87527 12.2088L8.17834 12.4392L8.06453 12.0675L8.36756 11.8412H7.99525L7.87962 11.4637ZM9.882 11.4637L9.76512 11.8412H9.39406L9.69442 12.0695L9.58325 12.4286L9.87766 12.2088L10.1807 12.4392L10.0669 12.0675L10.37 11.8412H9.99764L9.882 11.4637ZM11.8844 11.4637L11.7675 11.8412H11.3964L11.6968 12.0695L11.5856 12.4286L11.88 12.2088L12.1831 12.4392L12.0693 12.0675L12.3723 11.8412H12L11.8844 11.4637Z" fill="white"/>
</g>
<defs>
<clipPath id="clip0_8121_115">
<rect width="24" height="24" fill="white"/>
</clipPath>
</defs>
</svg>
