<svg width="17" height="20" viewBox="0 0 17 20" fill="none" xmlns="http://www.w3.org/2000/svg">
<path fill-rule="evenodd" clip-rule="evenodd" d="M0 4C0 1.79086 1.79086 0 4 0H10V4C10 6.20914 11.7909 8 14 8H16V16C16 18.2091 14.2091 20 12 20H4C1.79086 20 0 18.2091 0 16V4ZM4 9C3.44772 9 3 9.44772 3 10C3 10.5523 3.44772 11 4 11H6C6.55228 11 7 10.5523 7 10C7 9.44772 6.55228 9 6 9H4ZM4 13C3.44772 13 3 13.4477 3 14C3 14.5523 3.44772 15 4 15H8C8.55228 15 9 14.5523 9 14C9 13.4477 8.55228 13 8 13H4ZM12.6818 2.19879L12.5509 4.16288C12.5106 4.76656 13.0115 5.26743 13.6152 5.22718L15.5792 5.09624C16.4365 5.03909 16.8274 3.99887 16.2198 3.39135L14.3867 1.5582C13.7792 0.950684 12.7389 1.34153 12.6818 2.19879Z" fill="white"/>
</svg>
