<svg width="25" height="26" viewBox="0 0 25 26" fill="none" xmlns="http://www.w3.org/2000/svg">
<path d="M6.37428 2.62737C5.24218 3.78044 5.24218 5.6463 6.39524 6.79937L8.91102 9.31514C11.28 11.6842 11.28 15.5417 8.91102 17.9107L4.29876 13.2985C3.11425 12.1139 2.51675 10.5521 2.51675 9.00067C2.51675 7.44928 3.11425 5.8874 4.29876 4.70289L6.34283 2.65882C6.35331 2.64833 6.36379 2.63785 6.37428 2.62737Z" fill="#5D5FEF" stroke="white" stroke-width="2" stroke-miterlimit="10"/>
<path d="M8.38678 8.78992L6.39513 6.79826C5.24206 5.6452 5.23158 3.78981 6.37416 2.62627C7.50626 1.51513 9.30923 1.5361 10.4309 2.65771C10.9969 3.22376 11.2799 3.96801 11.2799 4.70178C11.2799 5.43555 10.9969 6.1798 10.4309 6.74585L9.95914 7.21756" fill="#5D5FEF"/>
<path d="M8.38678 8.78992L6.39513 6.79826C5.24206 5.6452 5.23158 3.78981 6.37416 2.62627C7.50626 1.51513 9.30923 1.5361 10.4309 2.65771C10.9969 3.22376 11.2799 3.96801 11.2799 4.70178C11.2799 5.43555 10.9969 6.1798 10.4309 6.74585L9.95914 7.21756" stroke="white" stroke-width="2" stroke-miterlimit="10"/>
<path d="M18.2715 23.2246C19.4036 22.0715 19.4036 20.2056 18.2505 19.0526L15.7348 16.5368C13.3657 14.1678 13.3657 10.3102 15.7348 7.94121L20.347 12.5535C21.5315 13.738 22.129 15.2999 22.129 16.8513C22.129 18.4027 21.5315 19.9645 20.347 21.149L18.3029 23.1931C18.282 23.2141 18.2715 23.2246 18.2715 23.2246Z" fill="#5D5FEF" stroke="white" stroke-width="2" stroke-miterlimit="10"/>
<path d="M16.2479 17.0713L18.2396 19.063C19.3926 20.2161 19.4031 22.0715 18.2606 23.235C17.1285 24.3461 15.3255 24.3252 14.2039 23.2036C13.6378 22.6375 13.3548 21.8933 13.3548 21.1595C13.3548 20.4257 13.6378 19.6815 14.2039 19.1154L14.686 18.6332" fill="#5D5FEF"/>
<path d="M16.2479 17.0713L18.2396 19.063C19.3926 20.2161 19.4031 22.0715 18.2606 23.235C17.1285 24.3461 15.3255 24.3252 14.2039 23.2036C13.6378 22.6375 13.3548 21.8933 13.3548 21.1595C13.3548 20.4257 13.6378 19.6815 14.2039 19.1154L14.686 18.6332" stroke="white" stroke-width="2" stroke-miterlimit="10"/>
</svg>
